HIERARCHY
ROOT Hips
{
	OFFSET 0.000000 0.000000 0.000000
	CHANNELS 6 Xposition Yposition Zposition Zrotation Yrotation Xrotation 
	JOINT LHipJoint
	{
		OFFSET 0.000000 0.000000 0.000000
		CHANNELS 3 Zrotation Yrotation Xrotation
		JOINT LeftUpLeg
		{
			OFFSET 1.363060 -1.794630 0.839290
			CHANNELS 3 Zrotation Yrotation Xrotation
			JOINT LeftLeg
			{
				OFFSET 2.448110 -6.726130 0.000000
				CHANNELS 3 Zrotation Yrotation Xrotation
				JOINT LeftFoot
				{
					OFFSET 2.562200 -7.039590 0.000000
					CHANNELS 3 Zrotation Yrotation Xrotation
					JOINT LeftToeBase
					{
						OFFSET 0.157640 -0.433110 2.322550
						CHANNELS 3 Zrotation Yrotation Xrotation
						End Site
						{
							OFFSET 0.000000 0.000000 0.000000
						}
					}
				}
			}
		}
	}
	JOINT RHipJoint
	{
		OFFSET 0.000000 0.000000 0.000000
		CHANNELS 3 Zrotation Yrotation Xrotation
		JOINT RightUpLeg
		{
			OFFSET -1.305520 -1.794630 0.839290
			CHANNELS 3 Zrotation Yrotation Xrotation
			JOINT RightLeg
			{
				OFFSET -2.542530 -6.985550 0.000000
				CHANNELS 3 Zrotation Yrotation Xrotation
				JOINT RightFoot
				{
					OFFSET -2.568260 -7.056230 0.000000
					CHANNELS 3 Zrotation Yrotation Xrotation
					JOINT RightToeBase
					{
						OFFSET -0.164730 -0.452590 2.363150
						CHANNELS 3 Zrotation Yrotation Xrotation
						End Site
						{
							OFFSET 0.000000 0.000000 0.000000
						}
					}
				}
			}
		}
	}
	JOINT LowerBack
	{
		OFFSET 0.000000 0.000000 0.000000
		CHANNELS 3 Zrotation Yrotation Xrotation
		JOINT Spine
		{
			OFFSET 0.028270 2.035590 -0.193380
			CHANNELS 3 Zrotation Yrotation Xrotation
			JOINT Spine1
			{
				OFFSET 0.056720 2.048850 -0.042750
				CHANNELS 3 Zrotation Yrotation Xrotation
				JOINT Neck
				{
					OFFSET 0.000000 0.000000 0.000000
					CHANNELS 3 Zrotation Yrotation Xrotation
					JOINT Neck1
					{
						OFFSET -0.054170 1.746240 0.172020
						CHANNELS 3 Zrotation Yrotation Xrotation
						JOINT Head
						{
							OFFSET 0.104070 1.761360 -0.123970
							CHANNELS 3 Zrotation Yrotation Xrotation
							End Site
							{
								OFFSET 0.000000 0.000000 0.000000
							}
						}
					}
				}
				JOINT LeftShoulder
				{
					OFFSET 0.000000 0.000000 0.000000
					CHANNELS 3 Zrotation Yrotation Xrotation
					JOINT LeftArm
					{
						OFFSET 3.362410 1.200890 -0.311210
						CHANNELS 3 Zrotation Yrotation Xrotation
						JOINT LeftForeArm
						{
							OFFSET 4.983000 -0.000000 -0.000000
							CHANNELS 3 Zrotation Yrotation Xrotation
							JOINT LeftHand
							{
								OFFSET 3.483560 -0.000000 -0.000000
								CHANNELS 3 Zrotation Yrotation Xrotation
								JOINT LeftFingerBase
								{
									OFFSET 0.000000 0.000000 0.000000
									CHANNELS 3 Zrotation Yrotation Xrotation
									JOINT LeftHandIndex1
									{
										OFFSET 0.715260 -0.000000 -0.000000
										CHANNELS 3 Zrotation Yrotation Xrotation
										End Site
										{
											OFFSET 0.000000 0.000000 0.000000
										}
									}
								}
								JOINT LThumb
								{
									OFFSET 0.000000 0.000000 0.000000
									CHANNELS 3 Zrotation Yrotation Xrotation
									End Site
									{
										OFFSET 0.000000 0.000000 0.000000
									}
								}
							}
						}
					}
				}
				JOINT RightShoulder
				{
					OFFSET 0.000000 0.000000 0.000000
					CHANNELS 3 Zrotation Yrotation Xrotation
					JOINT RightArm
					{
						OFFSET -3.136600 1.374050 -0.404650
						CHANNELS 3 Zrotation Yrotation Xrotation
						JOINT RightForeArm
						{
							OFFSET -5.241900 -0.000000 -0.000000
							CHANNELS 3 Zrotation Yrotation Xrotation
							JOINT RightHand
							{
								OFFSET -3.444170 -0.000000 -0.000000
								CHANNELS 3 Zrotation Yrotation Xrotation
								JOINT RightFingerBase
								{
									OFFSET 0.000000 0.000000 0.000000
									CHANNELS 3 Zrotation Yrotation Xrotation
									JOINT RightHandIndex1
									{
										OFFSET -0.622530 -0.000000 -0.000000
										CHANNELS 3 Zrotation Yrotation Xrotation
										End Site
										{
											OFFSET 0.000000 0.000000 0.000000
										}
									}
								}
								JOINT RThumb
								{
									OFFSET 0.000000 0.000000 0.000000
									CHANNELS 3 Zrotation Yrotation Xrotation
									End Site
									{
										OFFSET 0.000000 0.000000 0.000000
									}
								}
							}
						}
					}
				}
			}
		}
	}
}
MOTION
Frames: 5
Frame Time: 0.008333
0.960716 17.905057 -8.829246 -5.150529 -6.094281 9.634578 -2.453745 0.276829 1.080011 -11.246167 -1.064692 -15.729098 1.094912 9.571005 28.349839 -0.092647 3.942520 -12.131750 0.217700 -3.003600 -8.288700 4.558816 1.149789 0.414639 18.282163 5.260679 -15.799137 -2.182108 -9.832430 27.550445 0.236927 -4.258274 -9.999404 -0.004900 -0.453000 1.244800 -2.896440 0.210951 -8.798768 5.058783 0.783029 -0.354690 5.116105 0.322690 3.587936 0.667703 -0.601513 -13.844049 -1.996380 0.848227 35.054840 -2.489500 0.614900 17.813600 0.551644 5.160771 -1.159818 -92.222812 -1.929563 31.058707 11.203332 -19.791053 -1.303315 1.090528 0.799358 1.903367 11.403454 33.004670 5.562900 -7.125000 0.000000 0.000000 -25.457300 60.865100 -10.221200 0.010406 -3.947493 -1.271171 86.480793 -0.940285 23.737272 -13.978624 24.333783 -2.613718 0.014117 0.213580 -6.916358 -19.893783 9.855724 -3.471500 7.125000 0.000000 0.000000 5.018800 -19.769400 3.037000 
0.963709 17.905057 -8.827749 -5.155912 -6.115004 9.624252 -2.454272 0.278420 1.083054 -11.255059 -1.034338 -15.713075 1.092745 9.564559 28.333530 -0.086132 3.909329 -12.126888 0.207000 -2.929500 -8.082600 4.556886 1.149858 0.415965 18.280702 5.210442 -15.807514 -2.182370 -9.833405 27.549867 0.246085 -4.287336 -9.894695 -0.006100 -0.505300 1.388600 -2.866659 0.207967 -8.785446 5.059951 0.774702 -0.339657 5.098694 0.318707 3.583921 0.663597 -0.587366 -13.885208 -2.010762 0.879916 35.087990 -2.491200 0.624700 17.844400 0.551855 5.161875 -1.159631 -92.222202 -1.891145 31.085583 11.230175 -19.839622 -1.315029 1.088068 0.799049 1.795256 11.416433 32.932894 5.559900 -7.125000 0.000000 0.000000 -25.380000 60.806400 -10.152300 0.010174 -3.948476 -1.271830 86.478219 -0.892904 23.735107 -13.952198 24.296863 -2.604582 0.016239 0.213397 -6.891325 -19.797491 9.876359 -3.461200 7.125000 0.000000 0.000000 5.086400 -19.753600 3.080000 
0.967302 17.903760 -8.825454 -5.117256 -6.168666 9.595959 -2.455236 0.280594 1.089111 -11.326647 -0.939517 -15.709016 1.092852 9.562590 28.333893 -0.095659 3.958776 -12.135557 0.248000 -3.204600 -8.848900 4.553526 1.148317 0.420063 18.217713 5.175672 -15.801445 -2.186944 -9.839947 27.566032 0.246256 -4.216718 -9.622463 -0.029000 -1.099000 3.021300 -2.897827 0.217356 -8.827735 5.066127 0.786942 -0.273735 5.121982 0.324244 3.624104 0.632013 -0.572920 -13.915378 -2.007320 0.913945 35.088462 -2.478700 0.633100 17.856100 0.549915 5.161479 -1.161757 -92.269479 -1.899351 31.012918 11.272161 -19.908348 -1.324973 1.083907 0.808398 1.995806 11.066086 33.172987 5.405800 -7.125000 0.000000 0.000000 -25.939200 60.923000 -10.465900 0.010188 -3.947621 -1.275807 86.432036 -0.867148 23.822869 -13.969899 24.323335 -2.611919 0.016342 0.212198 -7.019860 -19.760469 9.889353 -3.459400 7.125000 0.000000 0.000000 5.112700 -19.740900 3.097500 
0.967900 17.901365 -8.827350 -5.130202 -6.201032 9.567035 -2.451471 0.285201 1.094392 -11.325528 -0.873944 -15.704171 1.094318 9.562276 28.336778 -0.115433 4.043503 -12.105371 0.299700 -3.519900 -9.729700 4.554378 1.145968 0.421864 18.224708 5.204063 -15.776269 -2.190247 -9.843011 27.575184 0.253140 -4.209693 -9.428615 -0.049300 -1.433500 3.942300 -2.931893 0.220292 -8.833354 5.108122 0.793611 -0.222128 5.153190 0.327413 3.641219 0.593252 -0.581150 -13.915656 -2.009057 0.913063 35.068412 -2.473200 0.626200 17.846600 0.546821 5.161439 -1.163812 -92.308797 -1.919056 31.015794 11.285123 -19.929021 -1.325734 1.085154 0.811316 2.058043 11.038492 33.310801 5.410200 -7.125000 0.000000 0.000000 -26.091500 61.034900 -10.602000 0.007437 -3.947409 -1.278810 86.395213 -0.867942 23.930118 -14.003681 24.373094 -2.624428 0.014715 0.211951 -7.172466 -19.818260 9.907313 -3.476600 7.125000 0.000000 0.000000 5.072400 -19.717900 3.075600 
0.967900 17.900866 -8.831341 -5.151692 -6.144980 9.610192 -2.448672 0.281467 1.089017 -11.287996 -0.900647 -15.766126 1.095245 9.564863 28.337189 -0.104537 3.967201 -12.039721 0.268400 -3.332500 -9.205900 4.557754 1.147862 0.420189 18.248057 5.234214 -15.819626 -2.191096 -9.840844 27.579157 0.244822 -4.191064 -9.563284 -0.040700 -1.301400 3.578500 -2.937059 0.194898 -8.834053 5.131676 0.762103 -0.226503 5.158808 0.311556 3.643439 0.565042 -0.589521 -13.952253 -1.979968 0.904201 35.076157 -2.456500 0.622300 17.857400 0.546199 5.166098 -1.162795 -92.323782 -1.928305 31.055600 11.274840 -19.917433 -1.328968 1.086888 0.800491 1.896015 11.312185 33.028662 5.518300 -7.125000 0.000000 0.000000 -25.568200 60.863600 -10.268300 0.005576 -3.946141 -1.277934 86.394752 -0.802893 23.946739 -13.993820 24.359245 -2.620491 0.012652 0.212927 -7.141326 -19.891997 9.857512 -3.472000 7.125000 0.000000 0.000000 5.020700 -19.766900 3.038500 
